<svg width="18" height="17" viewBox="0 0 18 17" fill="none" xmlns="http://www.w3.org/2000/svg">
<g id="ic-job application">
<path id="Work" fill-rule="evenodd" clip-rule="evenodd" d="M7.71166 1.30746C7.14372 1.30746 6.66054 1.70213 6.52491 2.23407H11.0854C10.9498 1.70213 10.4666 1.30746 9.89868 1.30746H7.71166ZM12.3739 2.2336H14.0523C15.8324 2.2336 17.2819 3.70074 17.2819 5.5025C17.2819 5.5025 17.2311 6.26524 17.2141 7.32741C17.2124 7.4115 17.1717 7.49386 17.1048 7.54362C16.697 7.84477 16.3241 8.09359 16.2901 8.11075C14.883 9.05452 13.2478 9.7186 11.5058 10.0489C11.3922 10.0712 11.2804 10.012 11.2227 9.91078C10.7344 9.06482 9.82234 8.514 8.80512 8.514C7.79469 8.514 6.87411 9.05881 6.37143 9.90564C6.31294 10.0052 6.20274 10.0626 6.09 10.0412C4.36243 9.71002 2.72725 9.0468 1.32858 8.11933L0.514805 7.55306C0.44699 7.51016 0.404606 7.43295 0.404606 7.34715C0.379176 6.90958 0.336792 5.5025 0.336792 5.5025C0.336792 3.70074 1.78633 2.2336 3.56646 2.2336H5.23639C5.39745 0.989534 6.44009 0.0200195 7.71162 0.0200195H9.89863C11.1702 0.0200195 12.2128 0.989534 12.3739 2.2336ZM16.9936 9.18234L16.9597 9.1995C15.2474 10.3492 13.1876 11.1128 11.026 11.4302C10.7208 11.4731 10.4156 11.2758 10.3309 10.9669C10.1444 10.2634 9.54253 9.80008 8.82201 9.80008H8.81353H8.79658C8.07605 9.80008 7.47419 10.2634 7.2877 10.9669C7.20294 11.2758 6.89777 11.4731 6.59261 11.4302C4.43102 11.1128 2.37115 10.3492 0.658839 9.1995C0.650363 9.19092 0.565594 9.13944 0.49778 9.18234C0.421489 9.22524 0.421489 9.32819 0.421489 9.32819L0.480826 13.7039C0.480826 15.5056 1.92188 16.9642 3.70201 16.9642H13.9081C15.6882 16.9642 17.1293 15.5056 17.1293 13.7039L17.1971 9.32819C17.1971 9.32819 17.1971 9.22524 17.1208 9.18234C17.0784 9.1566 17.0276 9.16518 16.9936 9.18234ZM9.44076 12.7773C9.44076 13.1377 9.16103 13.4208 8.805 13.4208C8.45745 13.4208 8.16924 13.1377 8.16924 12.7773V11.6706C8.16924 11.3188 8.45745 11.0271 8.805 11.0271C9.16103 11.0271 9.44076 11.3188 9.44076 11.6706V12.7773Z" fill="#FF8F6B"/>
</g>
</svg>
