<svg width="18" height="17" viewBox="0 0 18 17" fill="none" xmlns="http://www.w3.org/2000/svg">
<g id="ic-stock">
<g id="Game">
<path id="Game_2" fill-rule="evenodd" clip-rule="evenodd" d="M11.3574 4.31462C11.5799 4.31767 11.8029 4.32072 12.0266 4.32301C14.4309 4.32301 16.1839 6.03712 16.1839 8.40421V11.4447C16.1839 13.8118 14.4309 15.5259 12.0266 15.5259C11.0635 15.5463 10.1004 15.5531 9.13039 15.5531C8.16036 15.5531 7.18339 15.5463 6.22028 15.5259C3.81598 15.5259 2.06299 13.8118 2.06299 11.4447V8.40421C2.06299 6.03712 3.81598 4.32301 6.22721 4.32301C7.13489 4.30941 8.06335 4.2958 9.00567 4.2958V4.18017C9.00567 3.71083 8.61073 3.32992 8.13957 3.32992H7.45362C6.67066 3.32992 6.03321 2.70414 6.03321 1.94231C6.03321 1.66343 6.26879 1.43216 6.55287 1.43216C6.84388 1.43216 7.07253 1.66343 7.07253 1.94231C7.07253 2.14637 7.24575 2.30962 7.45362 2.30962H8.13957C9.18582 2.31642 10.0381 3.15307 10.045 4.17337V4.30261C10.4818 4.30261 10.9186 4.3086 11.3574 4.31462ZM8.3128 10.4311H7.58527V11.1522C7.58527 11.431 7.34969 11.6623 7.06561 11.6623C6.7746 11.6623 6.54595 11.431 6.54595 11.1522V10.4311H5.81149C5.52741 10.4311 5.29183 10.2067 5.29183 9.921C5.29183 9.64211 5.52741 9.41085 5.81149 9.41085H6.54595V8.69664C6.54595 8.41775 6.7746 8.18649 7.06561 8.18649C7.34969 8.18649 7.58527 8.41775 7.58527 8.69664V9.41085H8.3128C8.59688 9.41085 8.83246 9.64211 8.83246 9.921C8.83246 10.2067 8.59688 10.4311 8.3128 10.4311ZM11.2575 9.2816H11.3268C11.6109 9.2816 11.8465 9.05713 11.8465 8.77145C11.8465 8.49257 11.6109 8.2613 11.3268 8.2613H11.2575C10.9665 8.2613 10.7379 8.49257 10.7379 8.77145C10.7379 9.05713 10.9665 9.2816 11.2575 9.2816ZM12.4424 11.6215H12.5117C12.7957 11.6215 13.0313 11.397 13.0313 11.1113C13.0313 10.8325 12.7957 10.6012 12.5117 10.6012H12.4424C12.1507 10.6012 11.9227 10.8325 11.9227 11.1113C11.9227 11.397 12.1507 11.6215 12.4424 11.6215Z" fill="#2FE6A7"/>
</g>
</g>
</svg>
