<svg width="13" height="13" viewBox="0 0 13 13" fill="none" xmlns="http://www.w3.org/2000/svg">
<g id="ic-sales">
<g id="Bag">
<path id="Combined Shape" fill-rule="evenodd" clip-rule="evenodd" d="M8.98172 4.0607C8.99718 4.02623 9.00443 3.98866 9.0029 3.95094H9.01561C8.96122 2.65305 7.88957 1.62876 6.58608 1.62876C5.28258 1.62876 4.21093 2.65305 4.15654 3.95094C4.15013 3.98725 4.15013 4.02439 4.15654 4.0607H4.87248C4.87889 4.02439 4.87889 3.98725 4.87248 3.95094C4.87248 3.01829 5.63115 2.26223 6.56701 2.26223C7.50288 2.26223 8.26154 3.01829 8.26154 3.95094C8.26202 3.98849 8.26919 4.02565 8.28273 4.0607H8.98172ZM10.545 5.57828L10.919 8.59129C11.1941 10.5557 10.0893 11.3565 8.6063 11.3565H4.57417C3.08684 11.3565 1.9477 10.8035 2.2572 8.59129L2.63548 5.57828C2.82892 4.47218 3.49521 4.06071 4.11852 4.06071H9.05766C9.67237 4.06071 10.3172 4.50315 10.545 5.57828ZM5.17168 6.56491C4.93427 6.56491 4.74182 6.36682 4.74182 6.12247C4.74182 5.87812 4.93427 5.68003 5.17168 5.68003C5.40909 5.68003 5.60155 5.87812 5.60155 6.12247C5.60155 6.36682 5.40909 6.56491 5.17168 6.56491ZM7.55743 6.12247C7.55743 6.36682 7.74989 6.56491 7.9873 6.56491C8.2247 6.56491 8.41716 6.36682 8.41716 6.12247C8.41716 5.87812 8.2247 5.68003 7.9873 5.68003C7.74989 5.68003 7.55743 5.87812 7.55743 6.12247Z" fill="#FF69B4"/>
</g>
</g>
</svg>
