<svg width="61" height="12" viewBox="0 0 61 12" fill="none" xmlns="http://www.w3.org/2000/svg">
<rect width="61" height="12" fill="#F1F1F1"/>
<g id="Dashboard" clip-path="url(#clip0_55_889)">
<rect width="1280" height="2001" transform="translate(-1075 -565)" fill="white"/>
<g id="Group 19051">
<g id="Group 18600" filter="url(#filter0_d_55_889)">
<rect id="Rectangle 8" x="-164" y="587" width="633" height="345" rx="10" transform="rotate(-90 -164 587)" fill="white"/>
</g>
<g id="Frame 18643">
<g id="Frame 18637">
<g id="Group 18636">
<g id="Group 525">
<path id="Star" d="M8.8032 7.27528C8.6628 7.41158 8.59829 7.6087 8.63027 7.80203L9.1122 10.4738C9.15286 10.7002 9.05745 10.9294 8.86825 11.0602C8.68286 11.196 8.4362 11.2123 8.234 11.1037L5.83304 9.84927C5.74955 9.80474 5.65686 9.78085 5.56199 9.77814H5.41508C5.36412 9.78574 5.31425 9.80203 5.26871 9.82701L2.86721 11.0874C2.74849 11.1471 2.61405 11.1683 2.48232 11.1471C2.1614 11.0863 1.94727 10.78 1.99985 10.4569L2.48232 7.78519C2.5143 7.59024 2.44979 7.39203 2.30939 7.25356L0.351867 5.35293C0.188153 5.19382 0.131233 4.95488 0.206043 4.7393C0.278684 4.52426 0.464082 4.36732 0.687969 4.33202L3.38221 3.94049C3.58712 3.91931 3.7671 3.79441 3.85925 3.60978L5.04645 1.17155C5.07464 1.11724 5.11096 1.06728 5.15487 1.02493L5.20366 0.986915C5.22914 0.958677 5.25841 0.935327 5.29094 0.91632L5.35003 0.894599L5.44218 0.856586H5.67041C5.87424 0.877765 6.05367 0.999948 6.14746 1.18241L7.35038 3.60978C7.43711 3.78736 7.6057 3.91062 7.80032 3.94049L10.4946 4.33202C10.7222 4.3646 10.9125 4.52208 10.9879 4.7393C11.0589 4.95706 10.9976 5.19599 10.8307 5.35293L8.8032 7.27528Z" fill="#FEC93E"/>
<path id="Star_2" d="M21.0928 7.27528C20.9523 7.41158 20.8878 7.6087 20.9198 7.80203L21.4018 10.4738C21.4424 10.7002 21.347 10.9294 21.1578 11.0602C20.9724 11.196 20.7258 11.2123 20.5235 11.1037L18.1226 9.84927C18.0391 9.80474 17.9464 9.78085 17.8515 9.77814H17.7046C17.6537 9.78574 17.6038 9.80203 17.5583 9.82701L15.1568 11.0874C15.038 11.1471 14.9036 11.1683 14.7719 11.1471C14.4509 11.0863 14.2368 10.78 14.2894 10.4569L14.7719 7.78519C14.8039 7.59024 14.7393 7.39203 14.5989 7.25356L12.6414 5.35293C12.4777 5.19382 12.4208 4.95488 12.4956 4.7393C12.5682 4.52426 12.7536 4.36732 12.9775 4.33202L15.6718 3.94049C15.8767 3.91931 16.0566 3.79441 16.1488 3.60978L17.336 1.17155C17.3642 1.11724 17.4005 1.06728 17.4444 1.02493L17.4932 0.986915C17.5187 0.958677 17.548 0.935327 17.5805 0.91632L17.6396 0.894599L17.7317 0.856586H17.96C18.1638 0.877765 18.3432 0.999948 18.437 1.18241L19.6399 3.60978C19.7267 3.78736 19.8953 3.91062 20.0899 3.94049L22.7841 4.33202C23.0118 4.3646 23.2021 4.52208 23.2774 4.7393C23.3484 4.95706 23.2872 5.19599 23.1202 5.35293L21.0928 7.27528Z" fill="#FEC93E"/>
<path id="Star_3" d="M33.3823 7.27528C33.2419 7.41158 33.1774 7.6087 33.2094 7.80203L33.6913 10.4738C33.732 10.7002 33.6365 10.9294 33.4474 11.0602C33.262 11.196 33.0153 11.2123 32.8131 11.1037L30.4121 9.84927C30.3287 9.80474 30.236 9.78085 30.1411 9.77814H29.9942C29.9432 9.78574 29.8934 9.80203 29.8478 9.82701L27.4463 11.0874C27.3276 11.1471 27.1932 11.1683 27.0614 11.1471C26.7405 11.0863 26.5264 10.78 26.579 10.4569L27.0614 7.78519C27.0934 7.59024 27.0289 7.39203 26.8885 7.25356L24.931 5.35293C24.7673 5.19382 24.7103 4.95488 24.7851 4.7393C24.8578 4.52426 25.0432 4.36732 25.2671 4.33202L27.9613 3.94049C28.1662 3.91931 28.3462 3.79441 28.4384 3.60978L29.6256 1.17155C29.6537 1.11724 29.6901 1.06728 29.734 1.02493L29.7828 0.986915C29.8082 0.958677 29.8375 0.935327 29.87 0.91632L29.9291 0.894599L30.0213 0.856586H30.2495C30.4533 0.877765 30.6328 0.999948 30.7266 1.18241L31.9295 3.60978C32.0162 3.78736 32.1848 3.91062 32.3794 3.94049L35.0737 4.33202C35.3013 4.3646 35.4916 4.52208 35.567 4.7393C35.638 4.95706 35.5767 5.19599 35.4098 5.35293L33.3823 7.27528Z" fill="#FEC93E"/>
<path id="Star_4" d="M45.6717 7.27528C45.5313 7.41158 45.4668 7.6087 45.4988 7.80203L45.9807 10.4738C46.0214 10.7002 45.926 10.9294 45.7368 11.0602C45.5514 11.196 45.3047 11.2123 45.1025 11.1037L42.7016 9.84927C42.6181 9.80474 42.5254 9.78085 42.4305 9.77814H42.2836C42.2327 9.78574 42.1828 9.80203 42.1372 9.82701L39.7357 11.0874C39.617 11.1471 39.4826 11.1683 39.3508 11.1471C39.0299 11.0863 38.8158 10.78 38.8684 10.4569L39.3508 7.78519C39.3828 7.59024 39.3183 7.39203 39.1779 7.25356L37.2204 5.35293C37.0567 5.19382 36.9998 4.95488 37.0746 4.7393C37.1472 4.52426 37.3326 4.36732 37.5565 4.33202L40.2507 3.94049C40.4556 3.91931 40.6356 3.79441 40.7278 3.60978L41.915 1.17155C41.9432 1.11724 41.9795 1.06728 42.0234 1.02493L42.0722 0.986915C42.0977 0.958677 42.1269 0.935327 42.1595 0.91632L42.2186 0.894599L42.3107 0.856586H42.5389C42.7428 0.877765 42.9222 0.999948 43.016 1.18241L44.2189 3.60978C44.3056 3.78736 44.4742 3.91062 44.6688 3.94049L47.3631 4.33202C47.5908 4.3646 47.781 4.52208 47.8564 4.7393C47.9274 4.95706 47.8662 5.19599 47.6992 5.35293L45.6717 7.27528Z" fill="#FEC93E"/>
<path id="Star_5" opacity="0.4" d="M57.9598 7.27528C57.8194 7.41158 57.7549 7.6087 57.7869 7.80203L58.2688 10.4738C58.3095 10.7002 58.2141 10.9294 58.0249 11.0602C57.8395 11.196 57.5928 11.2123 57.3906 11.1037L54.9897 9.84927C54.9062 9.80474 54.8135 9.78085 54.7186 9.77814H54.5717C54.5207 9.78574 54.4709 9.80203 54.4253 9.82701L52.0238 11.0874C51.9051 11.1471 51.7707 11.1683 51.6389 11.1471C51.318 11.0863 51.1039 10.78 51.1565 10.4569L51.6389 7.78519C51.6709 7.59024 51.6064 7.39203 51.466 7.25356L49.5085 5.35293C49.3448 5.19382 49.2878 4.95488 49.3627 4.7393C49.4353 4.52426 49.6207 4.36732 49.8446 4.33202L52.5388 3.94049C52.7437 3.91931 52.9237 3.79441 53.0159 3.60978L54.2031 1.17155C54.2313 1.11724 54.2676 1.06728 54.3115 1.02493L54.3603 0.986915C54.3858 0.958677 54.415 0.935327 54.4476 0.91632L54.5066 0.894599L54.5988 0.856586H54.827C55.0309 0.877765 55.2103 0.999948 55.3041 1.18241L56.507 3.60978C56.5937 3.78736 56.7623 3.91062 56.9569 3.94049L59.6512 4.33202C59.8789 4.3646 60.0691 4.52208 60.1445 4.7393C60.2155 4.95706 60.1542 5.19599 59.9873 5.35293L57.9598 7.27528Z" fill="#FEC93E"/>
</g>
</g>
</g>
</g>
</g>
</g>
<defs>
<filter id="filter0_d_55_889" x="-184" y="-66" width="385" height="673" filterUnits="userSpaceOnUse" color-interpolation-filters="sRGB">
<feFlood flood-opacity="0" result="BackgroundImageFix"/>
<feColorMatrix in="SourceAlpha" type="matrix" values="0 0 0 0 0 0 0 0 0 0 0 0 0 0 0 0 0 0 127 0" result="hardAlpha"/>
<feOffset/>
<feGaussianBlur stdDeviation="10"/>
<feComposite in2="hardAlpha" operator="out"/>
<feColorMatrix type="matrix" values="0 0 0 0 0 0 0 0 0 0 0 0 0 0 0 0 0 0 0.15 0"/>
<feBlend mode="normal" in2="BackgroundImageFix" result="effect1_dropShadow_55_889"/>
<feBlend mode="normal" in="SourceGraphic" in2="effect1_dropShadow_55_889" result="shape"/>
</filter>
<clipPath id="clip0_55_889">
<rect width="1280" height="2001" fill="white" transform="translate(-1075 -565)"/>
</clipPath>
</defs>
</svg>
